<svg viewBox="0 0 21 20" xmlns="http://www.w3.org/2000/svg">
<path d="M6.83202 13.667C6.10742 13.6678 5.41274 13.956 4.90037 14.4684C4.38801 14.9807 4.09982 15.6754 4.09903 16.4C4.09735 16.7589 4.16723 17.1145 4.3046 17.446C4.44196 17.7776 4.64403 18.0784 4.89902 18.331C5.21675 18.6487 5.60792 18.8831 6.03789 19.0134C6.46785 19.1438 6.92333 19.1661 7.36398 19.0784C7.80463 18.9907 8.21686 18.7957 8.56413 18.5106C8.9114 18.2255 9.18299 17.8592 9.35486 17.4441C9.52673 17.0289 9.59357 16.5778 9.54945 16.1307C9.50533 15.6836 9.35162 15.2542 9.10193 14.8807C8.85224 14.5072 8.51428 14.201 8.118 13.9893C7.72171 13.7776 7.27931 13.6669 6.83002 13.667H6.83202ZM8.19902 16.409C8.19783 16.7698 8.05349 17.1154 7.79771 17.37C7.54193 17.6245 7.19561 17.7671 6.83478 17.7665C6.47394 17.7659 6.12809 17.6221 5.87315 17.3668C5.61821 17.1114 5.47504 16.7653 5.47504 16.4045C5.47504 16.0436 5.61821 15.6976 5.87315 15.4422C6.12809 15.1868 6.47394 15.0431 6.83478 15.0425C7.19561 15.0419 7.54193 15.1845 7.79771 15.439C8.05349 15.6935 8.19783 16.0392 8.19902 16.4V16.409ZM16.399 13.667C15.6744 13.6678 14.9797 13.956 14.4674 14.4684C13.955 14.9807 13.6668 15.6754 13.666 16.4C13.6644 16.7589 13.7342 17.1145 13.8716 17.446C14.0089 17.7776 14.211 18.0784 14.466 18.331C14.7838 18.6487 15.175 18.8831 15.605 19.0135C16.035 19.1438 16.4905 19.1661 16.9312 19.0784C17.3719 18.9906 17.7841 18.7955 18.1314 18.5103C18.4787 18.2252 18.7502 17.8588 18.9221 17.4436C19.0939 17.0284 19.1606 16.5773 19.1164 16.1301C19.0722 15.6829 18.9183 15.2536 18.6685 14.8801C18.4187 14.5066 18.0806 14.2005 17.6842 13.9889C17.2878 13.7773 16.8454 13.6667 16.396 13.667H16.399ZM16.399 17.776C16.1286 17.776 15.8644 17.6958 15.6396 17.5456C15.4148 17.3954 15.2395 17.1819 15.1361 16.9321C15.0326 16.6823 15.0055 16.4075 15.0583 16.1423C15.111 15.8771 15.2412 15.6336 15.4324 15.4424C15.6236 15.2512 15.8672 15.121 16.1323 15.0683C16.3975 15.0155 16.6724 15.0426 16.9221 15.1461C17.1719 15.2495 17.3854 15.4247 17.5356 15.6495C17.6859 15.8743 17.766 16.1386 17.766 16.409C17.7663 16.5886 17.7311 16.7665 17.6625 16.9324C17.5939 17.0984 17.4932 17.2492 17.3662 17.3762C17.2392 17.5032 17.0884 17.6039 16.9225 17.6725C16.7565 17.7411 16.5786 17.7763 16.399 17.776Z"/>
<path d="M20.499 3.41693C20.4988 3.4749 20.49 3.5325 20.473 3.58792L18.423 11.7879C18.385 11.9338 18.2999 12.063 18.1809 12.1556C18.0619 12.2481 17.9158 12.2989 17.765 12.2999H5.46504C5.31303 12.3003 5.16518 12.2502 5.04466 12.1576C4.92414 12.0649 4.83776 11.9349 4.79904 11.7879L2.44104 2.34894L2.19904 1.36993H0.687042C0.505767 1.36993 0.331916 1.29792 0.203735 1.16974C0.0755542 1.04156 0.00354004 0.867707 0.00354004 0.686432C0.00354004 0.505156 0.0755542 0.331306 0.203735 0.203125C0.331916 0.0749439 0.505767 0.00292969 0.687042 0.00292969H2.73703C2.88905 0.00415723 3.03632 0.0560814 3.1555 0.150452C3.27469 0.244822 3.35898 0.37624 3.39503 0.523926L3.85603 2.35193L3.95004 2.73593H19.821C20.0008 2.73777 20.1726 2.81019 20.2995 2.93759C20.4263 3.06499 20.498 3.23716 20.499 3.41693Z"/>
</svg>
