<svg viewBox="0 0 40 30" xmlns="http://www.w3.org/2000/svg">
<path d="M20.0636 22.9197C19.6872 22.9197 19.4736 23.1588 19.4176 23.5097H20.679C20.623 23.1333 20.4043 22.9197 20.0636 22.9197Z"/>
<path d="M12.2716 22.9452C11.8139 22.9452 11.5341 23.2961 11.5341 23.7233C11.5341 24.1505 11.8139 24.5015 12.2716 24.5015C12.7089 24.5015 13.0039 24.1659 13.0039 23.7233C13.0039 23.2809 12.7089 22.9452 12.2716 22.9452Z"/>
<path d="M27.1944 22.9452C26.7365 22.9452 26.4568 23.2961 26.4568 23.7233C26.4568 24.1505 26.7365 24.5015 27.1944 24.5015C27.6317 24.5015 27.9267 24.1659 27.9267 23.7233C27.9267 23.2809 27.6317 22.9452 27.1944 22.9452Z"/>
<path d="M36.6667 0H3.33333C1.49495 0 0 1.49495 0 3.33333V26.6667C0 28.505 1.49495 30 3.33333 30H36.6667C38.505 30 40 28.505 40 26.6667V3.33333C40 1.49495 38.505 0 36.6667 0ZM10.522 24.939H9.98789V23.586C9.98789 23.174 9.81496 22.9451 9.45394 22.9451C9.10299 22.9451 8.85885 23.1689 8.85885 23.5911V24.939H8.32479V23.586C8.32479 23.174 8.14677 22.9451 7.79582 22.9451C7.43469 22.9451 7.20072 23.1689 7.20072 23.5911V24.939H6.66667V22.5077H7.19564V22.8078C7.394 22.523 7.64832 22.4467 7.90771 22.4467C8.27901 22.4467 8.5435 22.6095 8.71134 22.879C8.93514 22.5382 9.25557 22.4416 9.56573 22.4467C10.1557 22.4518 10.522 22.8383 10.522 23.4131V24.939ZM13.5025 23.7232V24.939H12.9735V24.6439C12.8057 24.8626 12.5514 25 12.2055 25C11.5239 25 10.9899 24.4658 10.9899 23.7232C10.9899 22.9808 11.5239 22.4467 12.2055 22.4467C12.5514 22.4467 12.8057 22.584 12.9735 22.8027V22.5077H13.5025V23.7232V23.7232ZM15.069 25C14.6722 25 14.306 24.8982 14.0161 24.6845L14.2653 24.2726C14.4434 24.41 14.7078 24.527 15.0741 24.527C15.4352 24.527 15.6285 24.4201 15.6285 24.2319C15.6285 24.0945 15.4911 24.0182 15.2012 23.9777L14.952 23.9421C14.4078 23.8658 14.1129 23.6216 14.1129 23.2249C14.1129 22.7417 14.5095 22.4467 15.1249 22.4467C15.5115 22.4467 15.8624 22.5332 16.1167 22.701L15.8879 23.1283C15.7404 23.0367 15.4403 22.9197 15.13 22.9197C14.8401 22.9197 14.6672 23.0265 14.6672 23.2045C14.6672 23.3673 14.8503 23.4131 15.0791 23.4436L15.3284 23.4792C15.8573 23.5555 16.1778 23.7793 16.1778 24.2065C16.1778 24.6693 15.7709 25 15.069 25ZM17.8715 25C17.2459 25 17.0272 24.6642 17.0272 24.0997V22.9909H16.5338V22.5077H17.0272V21.7702H17.5612V22.5077H18.4258V22.9909H17.5612V24.0896C17.5612 24.3336 17.6477 24.4965 17.9122 24.4965C18.0494 24.4965 18.2224 24.4507 18.3801 24.3591L18.5326 24.8118C18.3648 24.9287 18.1004 25 17.8715 25ZM21.2182 23.9267H19.4125C19.4888 24.3642 19.7991 24.5218 20.1399 24.5218C20.384 24.5218 20.6434 24.4303 20.8469 24.2676L21.1063 24.6591C20.8113 24.9083 20.4756 25 20.1094 25C19.382 25 18.8632 24.4965 18.8632 23.7232C18.8632 22.9655 19.3617 22.4467 20.0738 22.4467C20.7553 22.4467 21.2232 22.9655 21.2283 23.7232C21.2283 23.7946 21.2232 23.8607 21.2182 23.9267ZM23.1508 23.0113C23.039 22.9655 22.927 22.9502 22.8203 22.9502C22.4744 22.9502 22.3014 23.174 22.3014 23.5758V24.939H21.7726V22.5077H22.2964V22.8027C22.4337 22.5891 22.6321 22.4467 22.9372 22.4467C23.044 22.4467 23.1966 22.467 23.3136 22.5128L23.1508 23.0113ZM24.753 24.5014C24.9819 24.5014 25.1904 24.4253 25.3888 24.2827L25.6431 24.71C25.3786 24.9186 25.1345 25 24.7683 25C23.985 25 23.4713 24.4609 23.4713 23.7232C23.4713 22.9858 23.985 22.4467 24.7683 22.4467C25.1345 22.4467 25.3786 22.5281 25.6431 22.7366L25.3888 23.1639C25.1904 23.0214 24.9819 22.9451 24.753 22.9451C24.3309 22.9502 24.0206 23.2554 24.0206 23.7232C24.0206 24.1912 24.3309 24.4965 24.753 24.5014ZM28.4252 23.7232V24.939H27.8962V24.6439C27.7284 24.8626 27.4741 25 27.1282 25C26.4467 25 25.9127 24.4658 25.9127 23.7232C25.9127 22.9808 26.4467 22.4467 27.1282 22.4467C27.4741 22.4467 27.7284 22.584 27.8962 22.8027V22.5077H28.4252V23.7232ZM30.5004 23.0113C30.3885 22.9655 30.2766 22.9502 30.1697 22.9502C29.8239 22.9502 29.651 23.174 29.651 23.5758V24.939H29.122V22.5077H29.6459V22.8027C29.7832 22.5891 29.9816 22.4467 30.2868 22.4467C30.3935 22.4467 30.5462 22.467 30.6631 22.5128L30.5004 23.0113ZM33.3333 23.7232V24.939H32.8044V24.6439C32.6365 24.8626 32.3822 25 32.0363 25C31.3548 25 30.8207 24.4658 30.8207 23.7232C30.8207 22.9808 31.3548 22.4467 32.0363 22.4467C32.3822 22.4467 32.6365 22.584 32.8044 22.8027V21.5313H33.3333V23.7232ZM25.4167 20.8333C23.3172 20.8333 21.4184 19.9979 20 18.6595C18.5816 19.9979 16.6828 20.8333 14.5833 20.8333C10.2181 20.8333 6.66667 17.2819 6.66667 12.9167C6.66667 8.55143 10.2181 5 14.5833 5C16.6828 5 18.5816 5.83547 20 7.17387C21.4184 5.83547 23.3172 5 25.4167 5C29.7819 5 33.3333 8.55143 33.3333 12.9167C33.3333 17.2819 29.7819 20.8333 25.4167 20.8333Z"/>
<path d="M32.1025 22.9452C31.6447 22.9452 31.3651 23.2961 31.3651 23.7233C31.3651 24.1505 31.6447 24.5015 32.1025 24.5015C32.5399 24.5015 32.8349 24.1659 32.8349 23.7233C32.8349 23.2809 32.5399 22.9452 32.1025 22.9452Z"/>
<path d="M20 7.17386C18.4692 8.61836 17.5 10.6509 17.5 12.9167C17.5 15.1824 18.4692 17.215 20 18.6595C21.5308 17.215 22.5 15.1824 22.5 12.9167C22.5 10.6509 21.5308 8.61836 20 7.17386Z"/>
</svg>
