<svg viewBox="0 0 24 24" xmlns="http://www.w3.org/2000/svg">
<path d="M12 4C13.8129 4.00425 15.5705 4.6241 16.985 5.758H15.242C14.9768 5.758 14.7224 5.86335 14.5349 6.05089C14.3474 6.23843 14.242 6.49278 14.242 6.758C14.242 7.02321 14.3474 7.27757 14.5349 7.4651C14.7224 7.65264 14.9768 7.758 15.242 7.758H19.242C19.5072 7.758 19.7616 7.65264 19.9491 7.4651C20.1367 7.27757 20.242 7.02321 20.242 6.758V2.758C20.242 2.49278 20.1367 2.23843 19.9491 2.05089C19.7616 1.86335 19.5072 1.758 19.242 1.758C18.9768 1.758 18.7224 1.86335 18.5349 2.05089C18.3474 2.23843 18.242 2.49278 18.242 2.758V4.206C16.774 3.02456 15.0016 2.28274 13.1297 2.06629C11.2578 1.84984 9.3629 2.1676 7.66402 2.98284C5.96514 3.79807 4.53168 5.07749 3.52937 6.67318C2.52706 8.26886 1.99685 10.1156 2.00001 12C2.00001 12.2652 2.10537 12.5196 2.29291 12.7071C2.48044 12.8946 2.7348 13 3.00001 13C3.26523 13 3.51958 12.8946 3.70712 12.7071C3.89466 12.5196 4.00001 12.2652 4.00001 12C4.0024 9.87899 4.84602 7.84555 6.34579 6.34577C7.84557 4.846 9.87901 4.00238 12 4V4Z"/>
<path d="M21 11C20.7347 11 20.4804 11.1054 20.2929 11.2929C20.1053 11.4804 20 11.7348 20 12C20.0026 13.5066 19.5791 14.9832 18.7782 16.2593C17.9773 17.5355 16.8318 18.559 15.4739 19.2117C14.116 19.8645 12.6012 20.1198 11.1044 19.9482C9.60761 19.7766 8.18988 19.1851 7.01496 18.242H8.75696C9.02217 18.242 9.27653 18.1366 9.46406 17.9491C9.6516 17.7616 9.75696 17.5072 9.75696 17.242C9.75696 16.9768 9.6516 16.7224 9.46406 16.5349C9.27653 16.3474 9.02217 16.242 8.75696 16.242H4.75696C4.49174 16.242 4.23739 16.3474 4.04985 16.5349C3.86232 16.7224 3.75696 16.9768 3.75696 17.242V21.242C3.75696 21.5072 3.86232 21.7616 4.04985 21.9491C4.23739 22.1366 4.49174 22.242 4.75696 22.242C5.02217 22.242 5.27653 22.1366 5.46406 21.9491C5.6516 21.7616 5.75696 21.5072 5.75696 21.242V19.794C7.22507 20.9753 8.99751 21.717 10.8694 21.9334C12.7413 22.1498 14.6363 21.8321 16.3352 21.0169C18.0341 20.2017 19.4676 18.9223 20.47 17.3267C21.4725 15.7311 22.0029 13.8844 22 12C22 11.7348 21.8946 11.4804 21.7071 11.2929C21.5195 11.1054 21.2652 11 21 11Z"/>
</svg>
