<svg viewBox="0 0 40 40" xmlns="http://www.w3.org/2000/svg">
<path d="M15.8812 27.325C16.7916 29.2193 18.2105 30.8233 19.9797 31.9579C21.7489 33.0925 23.7986 33.7129 25.9 33.75H35.1875C35.1875 33.75 32.4437 32.5 34.625 28.8313C35.6317 27.2609 36.2099 25.4543 36.3021 23.5912C36.3943 21.7281 35.9972 19.8733 35.1504 18.2113C34.3035 16.5492 33.0364 15.1377 31.475 14.1171C29.9136 13.0965 28.1122 12.5024 26.25 12.3938C25.5615 12.3552 24.8708 12.3824 24.1875 12.475" stroke-width="2" stroke-linecap="round" stroke-linejoin="round"/>
<path d="M5.37498 22.5813C4.46111 21.1562 3.89883 19.5345 3.73446 17.8495C3.57009 16.1646 3.80833 14.4648 4.42955 12.89C5.05078 11.3152 6.03722 9.91048 7.30764 8.79157C8.57806 7.67266 10.0961 6.87154 11.7368 6.4542C13.3774 6.03687 15.0938 6.01524 16.7444 6.39112C18.3951 6.76699 19.9328 7.52961 21.231 8.61617C22.5292 9.70272 23.5507 11.0821 24.2114 12.6408C24.8721 14.1994 25.1531 15.8927 25.0312 17.5813C24.6437 23.0625 19.575 27.5 14.1 27.5H4.81248C4.81248 27.5 7.55623 26.25 5.37498 22.5813Z" stroke-width="2" stroke-linecap="round" stroke-linejoin="round"/>
<path d="M10.625 15.625H18.125" stroke-width="2" stroke-linecap="round" stroke-linejoin="round"/>
<path d="M10.625 18.75H18.125" stroke-width="2" stroke-linecap="round" stroke-linejoin="round"/>
</svg>
