<svg viewBox="0 0 32 32" xmlns="http://www.w3.org/2000/svg">
<path d="M24.832 11.445C24.646 11.167 24.334 11 24 11H23C22.447 11 22 11.447 22 12V18C22 18.553 22.447 19 23 19H27C27.553 19 28 18.553 28 18V16.5C28 16.303 27.941 16.109 27.832 15.945L24.832 11.445ZM27 18H23V12H24L27 16.5V18Z"/>
<path d="M31.496 15.336L27.496 9.336C26.938 8.499 26.004 8 25 8H21V6C21 4.346 19.654 3 18 3H3C1.346 3 0 4.346 0 6V17C0 18.654 1.346 20 3 20V23C3 24.654 4.346 26 6 26H7.142C7.589 27.721 9.142 29 11.001 29C12.858 29 14.411 27.721 14.858 26H20.14C20.587 27.721 22.14 29 23.999 29C25.856 29 27.409 27.721 27.856 26H29C30.654 26 32 24.654 32 23V17C32 16.406 31.826 15.83 31.496 15.336ZM3 18C2.448 18 2 17.553 2 17V6C2 5.447 2.448 5 3 5H18C18.553 5 19 5.447 19 6V8V10V17C19 17.553 18.553 18 18 18H3ZM11.001 27C9.896 27 9.001 26.104 9.001 25C9.001 23.896 9.896 23 11.001 23C12.105 23 13.001 23.896 13.001 25C13.001 26.104 12.104 27 11.001 27ZM24 27C22.895 27 22 26.104 22 25C22 23.896 22.895 23 24 23C25.104 23 26 23.896 26 25C26 26.104 25.104 27 24 27ZM30 23C30 23.553 29.553 24 29 24H27.857C27.41 22.279 25.857 21 24 21C22.141 21 20.588 22.279 20.141 24H14.859C14.412 22.279 12.859 21 11.002 21C9.143 21 7.59 22.279 7.143 24H6C5.448 24 5 23.553 5 23V20H18C19.654 20 21 18.654 21 17V10H25C25.334 10 25.646 10.167 25.832 10.445L29.832 16.445C29.941 16.609 30 16.803 30 17V23Z"/>
</svg>
